<svg xmlns="http://www.w3.org/2000/svg" width="320" height="60" viewBox="0 0 320 60">
  <!-- Icon -->
  <g transform="translate(10,15)">
    <path fill="#2FB4FF" d="M15-7.24l-20.33 11.64-.09 23.43 20.25 11.79 20.33-11.64.09-23.43L15-7.24zM-4.88 27.07l.08-21.91 19.01-10.89 18.93 11.02-19.01 10.89-.08 21.91-18.93-11.02z"/>
  </g>
  
  <!-- Title: ARCHMAN -->
  <g transform="translate(55,12)">
    <path fill="#2FB4FF" d="M3.35-4.18L5.54-10.12 7.73-4.18 3.35-4.18ZM1.52-0.02Q1.57 0 1.62 0L1.62 0Q1.81 0 1.87-0.18L1.87-0.18 3.15-3.63 7.93-3.63 9.2-0.18Q9.27 0 9.45 0L9.45 0Q9.51 0 9.55-0.02L9.55-0.02Q9.66-0.05 9.7-0.16L9.7-0.16Q9.75-0.26 9.71-0.37L9.71-0.37Q5.79-11.0 5.78-11.0L5.78-11.0Q5.72-11.17 5.54-11.17L5.54-11.17Q5.35-11.17 5.29-11.0L5.29-11.0Q5.29-11.0 1.36-0.37L1.36-0.37Q1.32-0.26 1.37-0.16L1.37-0.16Q1.41-0.05 1.52-0.02L1.52-0.02ZM15.84-4.17L12.52-4.17 12.52-10.63 15.84-10.63Q18.17-10.63 19.45-9.67L19.45-9.67Q20.73-8.73 20.73-7.4L20.73-7.4Q20.73-6.07 19.45-5.12L19.45-5.12Q18.17-4.17 15.84-4.17L15.84-4.17ZM21.15-0.43L16.94-3.64Q19.22-3.73 20.57-4.82L20.57-4.82Q21.93-5.9 21.93-7.4L21.93-7.4Q21.93-8.95 20.5-10.06L20.5-10.06Q19.06-11.16 15.84-11.16L15.84-11.16 11.91-11.16Q11.8-11.16 11.73-11.08L11.73-11.08Q11.65-11.0 11.65-10.89L11.65-10.89 11.65-0.27Q11.65-0.16 11.73-0.08L11.73-0.08Q11.8 0 11.91 0L11.91 0Q12.03 0 12.1-0.08L12.1-0.08Q12.17-0.16 12.17-0.27L12.17-0.27 12.17-3.63 15.25-3.63 20.05-0.11Q20.13 0 20.27 0L20.27 0Q20.36 0 20.43-0.05L20.43-0.05Q20.52-0.13 20.54-0.23L20.54-0.23Q20.55-0.34 20.47-0.43L20.47-0.43ZM32.2-0.55L33.33-0.55Q33.44-0.55 33.56-0.47L33.56-0.47Q33.67-0.39 33.67-0.27L33.67-0.27Q33.67-0.16 33.56-0.08L33.56-0.08Q33.44 0 33.33 0L33.33 0 32.2 0Q28.73 0 26.44-2.27L26.44-2.27Q24.15-4.54 24.15-8.02L24.15-8.02 24.15-8.28Q24.15-11.76 26.44-14.03L26.44-14.03Q28.73-16.3 32.2-16.3L32.2-16.3 33.33-16.3Q33.44-16.3 33.56-16.38L33.56-16.38Q33.67-16.46 33.67-16.57L33.67-16.57Q33.67-16.69 33.56-16.77L33.56-16.77Q33.47-16.85 33.33-16.85L33.33-16.85 32.2-16.85Q28.18-16.85 25.61-14.28L25.61-14.28Q23.04-11.71 23.04-8.28L23.04-8.28 23.04-8.02Q23.04-4.59 25.61-2.02L25.61-2.02Q28.18 0.55 32.2 0.55L32.2 0.55ZM37.25 0Q37.36 0 37.44-0.08L37.44-0.08Q37.52-0.16 37.52-0.27L37.52-0.27 37.52-3.64 42.01-3.64 42.01-0.27Q42.01-0.16 42.09-0.08L42.09-0.08Q42.17 0 42.28 0L42.28 0Q42.39 0 42.47-0.08L42.47-0.08Q42.55-0.16 42.55-0.27L42.55-0.27 42.55-10.91Q42.55-11.03 42.47-11.11L42.47-11.11Q42.39-11.18 42.28-11.18L42.28-11.18Q42.17-11.18 42.09-11.11L42.09-11.11Q42.01-11.03 42.01-10.91L42.01-10.91 42.01-4.18 37.52-4.18 37.52-10.91Q37.52-11.03 37.44-11.11L37.44-11.11Q37.36-11.18 37.25-11.18L37.25-11.18Q37.14-11.18 37.06-11.11L37.06-11.11Q36.98-11.03 36.98-10.91L36.98-10.91 36.98-0.27Q36.98-0.16 37.06-0.08L37.06-0.08Q37.14 0 37.25 0L37.25 0ZM47.17 0Q47.28 0 47.36-0.08L47.36-0.08Q47.44-0.16 47.44-0.27L47.44-0.27 47.44-9.72 51.23-3.78Q51.23-3.78 51.24-3.77L51.24-3.77Q51.24-3.77 51.25-3.75L51.25-3.75Q51.27-3.73 51.27-3.73L51.27-3.73Q51.27-3.73 51.29-3.72L51.29-3.72Q51.29-3.69 51.29-3.70L51.29-3.70Q51.30-3.69 51.30-3.68L51.30-3.68Q51.32-3.67 51.32-3.66L51.32-3.66Q51.34-3.65 51.33-3.66L51.33-3.66Q51.33-3.66 51.35-3.65L51.35-3.65Q51.36-3.65 51.37-3.64L51.37-3.64Q51.38-3.64 51.39-3.63L51.39-3.63Q51.41-3.63 51.42-3.63L51.42-3.63Q51.43-3.63 51.44-3.63L51.44-3.63Q51.45-3.63 51.47-3.63L51.47-3.63Q51.49-3.64 51.49-3.64L51.49-3.64Q51.50-3.64 51.52-3.65L51.52-3.65Q51.52-3.65 51.53-3.65L51.53-3.65Q51.53-3.66 51.54-3.66L51.54-3.66Q51.54-3.66 51.54-3.66L51.54-3.66Q51.56-3.67 51.57-3.68L51.57-3.68Q51.58-3.69 51.58-3.70L51.58-3.70Q51.59-3.70 51.60-3.72L51.60-3.72Q51.61-3.72 51.62-3.73L51.62-3.73Q51.62-3.73 51.63-3.75L51.63-3.75Q51.65-3.76 51.66-3.77L51.66-3.77Q51.66-3.79 51.66-3.78L51.66-3.78 55.45-9.72 55.45-0.27Q55.45-0.16 55.53-0.08L55.53-0.08Q55.61 0 55.72 0L55.72 0Q55.83 0 55.91-0.08L55.91-0.08Q55.99-0.16 55.99-0.27L55.99-0.27 55.99-10.89Q55.99-11.1 55.69-11.14L55.69-11.14Q55.40-11.20 55.27-11.0L55.27-11.0 51.47-4.51 47.67-11.0Q47.56-11.20 47.26-11.14L47.26-11.14Q46.98-11.10 46.98-10.89L46.98-10.89 46.98-0.27Q46.98-0.16 47.06-0.08L47.06-0.08Q47.14 0 47.17 0L47.17 0ZM62.05-4.18L64.24-4.18L63.87-4.67Q63.74-5.06 63.62-5.44Q63.49-5.82 63.36-6.21L63.36-6.21L63.34-6.21Q63.24-5.82 63.11-5.44Q63.01-5.06 62.87-4.67L62.87-4.67L62.05-4.18ZM65.01 0L64.38-2.40L61.91-2.40L61.26 0L60.57 0L62.75-7.87L63.60-7.87L65.78 0L65.01 0ZM68.52 0Q68.63 0 68.71-0.08L68.71-0.08Q68.79-0.16 68.79-0.27L68.79-0.27 68.79-9.89 73.55-0.13Q73.63 0 73.77 0L73.77 0Q73.80 0 73.84-0.01L73.84-0.01Q74.08-0.06 74.08-0.27L74.08-0.27 74.08-10.92Q74.08-11.04 74.00-11.12L74.00-11.12Q73.94-11.19 73.83-11.19L73.83-11.19Q73.72-11.19 73.65-11.12L73.65-11.12Q73.57-11.04 73.57-10.92L73.57-10.92 73.57-1.28 68.81-11.06Q68.69-11.23 68.43-11.18L68.43-11.18Q68.18-11.13 68.18-10.92L68.18-10.92 68.18-0.27Q68.18-0.16 68.26-0.08L68.26-0.08Q68.34 0 68.52 0L68.52 0Z"/>
  </g>
  
  <!-- Slogan: ARCHITECTURE MANUAL -->
  <g transform="translate(55,45)">
    <path fill="#2FB4FF" d="M0.69-1.07L1.48-1.07L1.35-1.47Q1.28-1.69 1.22-1.91Q1.15-2.12 1.09-2.35L1.09-2.35L1.07-2.35Q1.01-2.12 0.95-1.91Q0.88-1.69 0.81-1.47L0.81-1.47L0.69-1.07ZM1.81 0L1.56-0.80L0.60-0.80L0.35 0L0.01 0L0.90-2.62L1.28-2.62L2.16 0L1.81 0ZM4.53-2.36L4.53-1.38L4.97-1.38Q5.28-1.38 5.45-1.51Q5.62-1.63 5.62-1.89L5.62-1.89Q5.62-2.15 5.45-2.25Q5.28-2.36 4.97-2.36L4.97-2.36L4.53-2.36ZM6.02 0L5.64 0L5.01-1.11L4.53-1.11L4.53 0L4.20 0L4.20-2.62L5.02-2.62Q5.23-2.62 5.39-2.59Q5.56-2.55 5.68-2.46Q5.81-2.37 5.87-2.23Q5.94-2.09 5.94-1.89L5.94-1.89Q5.94-1.58 5.74-1.40Q5.54-1.21 5.35-1.14L5.35-1.14L6.02 0ZM8.05-1.31L8.05-1.31Q8.05-1.63 8.13-1.88Q8.22-2.13 8.37-2.31Q8.53-2.48 8.75-2.58Q8.96-2.67 9.21-2.67L9.21-2.67Q9.45-2.67 9.63-2.57Q9.81-2.48 9.93-2.35L9.93-2.35L9.74-2.14Q9.63-2.25 9.51-2.31Q9.38-2.38 9.21-2.38L9.21-2.38Q9.03-2.38 8.87-2.31Q8.72-2.23 8.61-2.09Q8.51-1.96 8.45-1.76Q8.39-1.56 8.39-1.32L8.39-1.32Q8.39-1.07 8.44-0.87Q8.50-0.68 8.61-0.54Q8.71-0.40 8.86-0.32Q9.01-0.24 9.20-0.24L9.20-0.24Q9.39-0.24 9.53-0.32Q9.67-0.40 9.80-0.54L9.80-0.54L9.99-0.33Q9.83-0.15 9.64-0.05Q9.44 0.05 9.19 0.05L9.19 0.05Q8.94 0.05 8.73-0.04Q8.52-0.14 8.37-0.31Q8.21-0.48 8.13-0.74Q8.05-0.99 8.05-1.31ZM12.14 0L12.14-2.62L12.48-2.62L12.48-1.52L13.70-1.52L13.70-2.62L14.04-2.62L14.04 0L13.70 0L13.70-1.24L12.48-1.24L12.48 0L12.14 0ZM16.42 0L16.42-2.62L16.75-2.62L16.75 0L16.42 0ZM19.68 0L19.68-2.34L18.89-2.34L18.89-2.62L20.82-2.62L20.82-2.34L20.02-2.34L20.02 0L19.68 0ZM22.95 0L22.95-2.62L24.46-2.62L24.46-2.34L23.28-2.34L23.28-1.52L24.28-1.52L24.28-1.24L23.28-1.24L23.28-0.28L24.50-0.28L24.50 0L22.95 0ZM26.57-1.31L26.57-1.31Q26.57-1.63 26.66-1.88Q26.74-2.13 26.90-2.31Q27.05-2.48 27.27-2.58Q27.49-2.67 27.74-2.67L27.74-2.67Q27.98-2.67 28.16-2.57Q28.34-2.48 28.46-2.35L28.46-2.35L28.27-2.14Q28.16-2.25 28.04-2.31Q27.91-2.38 27.74-2.38L27.74-2.38Q27.56-2.38 27.40-2.31Q27.25-2.23 27.14-2.09Q27.04-1.96 26.98-1.76Q26.92-1.56 26.92-1.32L26.92-1.32Q26.92-1.07 26.97-0.87Q27.03-0.68 27.14-0.54Q27.24-0.40 27.39-0.32Q27.54-0.24 27.73-0.24L27.73-0.24Q27.92-0.24 28.06-0.32Q28.20-0.40 28.33-0.54L28.33-0.54L28.52-0.33Q28.36-0.15 28.17-0.05Q27.97 0.05 27.72 0.05L27.72 0.05Q27.47 0.05 27.26-0.04Q27.05-0.14 26.90-0.31Q26.74-0.48 26.66-0.74Q26.57-0.99 26.57-1.31ZM31.15 0L31.15-2.34L30.35-2.34L30.35-2.62L32.28-2.62L32.28-2.34L31.49-2.34L31.49 0L31.15 0ZM34.40-1.08L34.40-2.62L34.73-2.62L34.73-1.08Q34.73-0.84 34.77-0.68Q34.82-0.52 34.91-0.42Q35.00-0.33 35.10-0.29Q35.22-0.24 35.34-0.24L35.34-0.24Q35.48-0.24 35.59-0.29Q35.70-0.33 35.79-0.42Q35.88-0.52 35.92-0.68Q35.96-0.84 35.96-1.08L35.96-1.08L35.96-2.62L36.28-2.62L36.28-1.08Q36.28-0.77 36.21-0.55Q36.14-0.34 36.01-0.20Q35.89-0.07 35.72-0.01Q35.54 0.05 35.34 0.05L35.34 0.05Q35.14 0.05 34.97-0.01Q34.80-0.07 34.67-0.20Q34.54-0.34 34.47-0.55Q34.40-0.77 34.40-1.08L34.40-1.08ZM38.99-2.36L38.99-1.38L39.43-1.38Q39.74-1.38 39.91-1.51Q40.08-1.63 40.08-1.89L40.08-1.89Q40.08-2.15 39.91-2.25Q39.74-2.36 39.43-2.36L39.43-2.36L38.99-2.36ZM40.48 0L40.10 0L39.47-1.11L38.99-1.11L38.99 0L38.66 0L38.66-2.62L39.48-2.62Q39.69-2.62 39.85-2.59Q40.01-2.55 40.14-2.46Q40.27-2.37 40.33-2.23Q40.40-2.09 40.40-1.89L40.40-1.89Q40.40-1.58 40.20-1.40Q40.00-1.21 39.81-1.14L39.81-1.14L40.48 0ZM42.65 0L42.65-2.62L44.16-2.62L44.16-2.34L42.98-2.34L42.98-1.52L43.98-1.52L43.98-1.24L42.98-1.24L42.98-0.28L44.20-0.28L44.20 0L42.65 0ZM48.89 0L48.89-2.62L49.16-2.62L49.80-1.21L50.10-0.68L50.11-0.68L50.41-1.21L51.02-2.62L51.30-2.62L51.30 0L51.02 0L51.02-1.44Q51.02-1.62 51.03-1.83Q51.05-2.05 51.06-2.22L51.06-2.22L51.04-2.22L50.72-1.64L50.08-0.26L49.89-0.26L49.25-1.64L48.94-2.22L48.92-2.22Q48.93-2.05 48.95-1.83Q48.97-1.62 48.97-1.44L48.97-1.44L48.97 0L48.89 0ZM53.80-1.07L54.59-1.07L54.46-1.47Q54.39-1.69 54.33-1.91Q54.26-2.12 54.20-2.35L54.20-2.35L54.18-2.35Q54.12-2.12 54.06-1.91Q53.99-1.69 53.92-1.47L53.92-1.47L53.80-1.07ZM54.92 0L54.67-0.80L53.71-0.80L53.46 0L53.12 0L54.01-2.62L54.39-2.62L55.27 0L54.92 0ZM57.30 0L57.30-2.62L57.63-2.62L58.94-0.98L59.22-0.43L59.23-0.43Q59.22-0.63 59.22-0.85Q59.21-1.06 59.21-1.27L59.21-1.27L59.21-2.62L59.52-2.62L59.52 0L59.18 0L57.87-1.65L57.59-2.19L57.58-2.19Q57.60-1.99 57.61-1.79Q57.63-1.58 57.63-1.37L57.63-1.37L57.63 0L57.30 0ZM61.73-1.08L61.73-2.62L62.06-2.62L62.06-1.08Q62.06-0.84 62.11-0.68Q62.15-0.52 62.24-0.42Q62.33-0.33 62.44-0.29Q62.55-0.24 62.67-0.24L62.67-0.24Q62.80-0.24 62.91-0.29Q63.02-0.33 63.12-0.42Q63.21-0.52 63.26-0.68Q63.30-0.84 63.30-1.08L63.30-1.08L63.30-2.62L63.61-2.62L63.61-1.08Q63.61-0.77 63.54-0.55Q63.47-0.34 63.35-0.20Q63.22-0.07 63.05-0.01Q62.87 0.05 62.67 0.05L62.67 0.05Q62.47 0.05 62.30-0.01Q62.13-0.07 62.00-0.20Q61.87-0.34 61.80-0.55Q61.73-0.77 61.73-1.08L61.73-1.08ZM66.07-1.07L66.86-1.07L66.73-1.47Q66.66-1.69 66.60-1.91Q66.53-2.12 66.47-2.35L66.47-2.35L66.45-2.35Q66.39-2.12 66.33-1.91Q66.26-1.69 66.19-1.47L66.19-1.47L66.07-1.07ZM67.19 0L66.94-0.80L65.98-0.80L65.73 0L65.39 0L66.28-2.62L66.66-2.62L67.54 0L67.19 0ZM69.59 0L69.59-2.62L69.92-2.62L69.92-0.28L71.07-0.28L71.07 0L69.59 0Z"/>
  </g>
</svg>